<?xml version="1.0" encoding="UTF-8"?>
<svg version="1.1" xmlns="http://www.w3.org/2000/svg" width="512" height="512">
<path d="M0 0 C4.1796989 2.8497947 7.11864324 5.98092971 8.75 10.875 C8.94492729 12.58951285 9.0931637 14.30949912 9.21484375 16.03076172 C9.29154297 17.1109256 9.36824219 18.19108948 9.44726562 19.3039856 C9.56618164 21.09870804 9.56618164 21.09870804 9.6875 22.9296875 C9.81608398 24.83957962 9.81608398 24.83957962 9.94726562 26.78805542 C11.09369796 44.22530112 11.84411672 61.68472418 12.62196732 79.14144897 C12.75145306 82.032442 12.88295991 84.92333641 13.0151062 87.81420898 C13.90799176 107.35961978 14.76699748 126.90345958 15.34765625 146.4609375 C15.39006773 147.86125747 15.43249701 149.26157689 15.47494507 150.66189575 C15.66471186 156.994416 15.83544819 163.32688488 15.97851562 169.66064453 C16.03875666 171.86752139 16.09928424 174.07439045 16.16015625 176.28125 C16.1757106 177.25105804 16.19126495 178.22086609 16.20729065 179.22006226 C16.40225341 185.70298202 17.20908373 191.61709251 21.328125 196.8984375 C21.87984375 197.34445313 22.4315625 197.79046875 23 198.25 C23.54140625 198.71148437 24.0828125 199.17296875 24.640625 199.6484375 C30.47572045 203.04143745 36.74809068 203.22928697 43.32299805 203.42163086 C44.73241417 203.47345127 44.73241417 203.47345127 46.17030334 203.52631855 C49.28388116 203.63889691 52.3977319 203.73927307 55.51171875 203.83984375 C57.71697483 203.91765982 59.92220015 203.99635195 62.12739563 204.0758667 C66.80638191 204.24325581 71.48550064 204.40575663 76.16479492 204.56430054 C87.05943629 204.93410836 97.95309988 205.33100687 108.84677505 205.72811317 C111.25031667 205.81569074 113.65386846 205.90298965 116.05743027 205.99001122 C135.96241379 206.71146971 155.85796547 207.54529647 175.75 208.5625 C176.95514252 208.62307587 178.16028503 208.68365173 179.40194702 208.74606323 C182.72650856 208.91416245 186.05080341 209.08656349 189.375 209.26171875 C190.29928299 209.30947449 191.22356598 209.35723022 192.17585754 209.40643311 C196.51804165 209.64425819 200.85445439 209.93427764 205.1875 210.30395508 C206.38052734 210.40441887 206.38052734 210.40441887 207.59765625 210.50691223 C212.24588247 211.30183879 215.01046342 214.05551352 218.0625 217.4375 C221.01167987 221.69742647 221.26787585 225.83050565 220.75 230.875 C219.00704588 235.81337 216.22593412 239.17147775 211.75 241.875 C204.05748428 244.45276464 196.05570897 244.47455898 188.01953125 244.83984375 C186.42393786 244.91791041 184.82837265 244.99655468 183.23283386 245.07572937 C178.91093442 245.28771202 174.58858534 245.4886757 170.26605225 245.68726349 C167.55882221 245.81267037 164.85178257 245.94159279 162.14477539 246.07171631 C140.6886367 247.10216578 119.2301712 247.99919135 97.76171875 248.73046875 C96.78901346 248.76376471 95.81630817 248.79706066 94.81412697 248.83136559 C85.34541866 249.15463696 75.87654207 249.46859612 66.40659046 249.75331211 C62.9058572 249.85980535 59.40534156 249.97256149 55.90484047 250.0864048 C54.2875035 250.13730927 52.67006748 250.18517724 51.05254173 250.22968102 C35.09897568 250.13701007 35.09897568 250.13701007 21.22265625 256.8515625 C16.41458961 263.45787157 16.22143263 270.77587494 15.98217773 278.63891602 C15.93618439 279.79663513 15.89019104 280.95435425 15.84280396 282.14715576 C15.6938342 285.97404465 15.56377559 289.80133604 15.43359375 293.62890625 C15.33336969 296.32668259 15.22892616 299.02429099 15.12452698 301.72190857 C14.87918069 308.12052666 14.64705591 314.51954956 14.42011362 320.91884416 C14.14204554 328.7476941 13.85020652 336.57601485 13.55664062 344.40429688 C13.53070052 345.0963147 13.50476042 345.78833253 13.47803426 346.5013206 C13.37395838 349.27697587 13.2698279 352.05262904 13.16545546 354.82827318 C13.03661584 358.25480918 12.90826691 361.68136203 12.78107834 365.10795975 C12.16765831 381.62761571 11.51200319 398.14305281 10.66015625 414.65234375 C10.62067808 415.4251877 10.58119991 416.19803165 10.54052544 416.99429512 C9.06251103 445.63334482 9.06251103 445.63334482 4.2890625 450.3046875 C-0.79989084 454.69856428 -3.91985003 455.22961941 -10.48828125 455.15234375 C-14.38419036 454.7610997 -16.39622175 453.51996521 -19.25 450.875 C-23.1418573 445.72091871 -24.34995158 441.9865626 -24.68310547 435.61547852 C-24.75353561 434.30213531 -24.82396576 432.98879211 -24.89653015 431.63565063 C-24.97029566 430.17507992 -25.04384054 428.71449805 -25.1171875 427.25390625 C-25.19707942 425.71600258 -25.27718841 424.17811018 -25.35749817 422.64022827 C-25.57466345 418.44925662 -25.7851817 414.25797517 -25.99380112 410.06657028 C-26.12485517 407.44040213 -26.25762817 404.81432562 -26.39077759 402.18826294 C-27.9665344 371.01342531 -29.17619511 339.82951849 -30.21016026 308.63233185 C-30.29687885 306.01696292 -30.38442711 303.40162277 -30.47209167 300.7862854 C-30.57860397 297.6077336 -30.68138567 294.4290964 -30.78144836 291.25033569 C-30.99832552 284.53151346 -31.26310367 277.81519817 -31.64770508 271.10375977 C-31.70888016 270.0111232 -31.77005524 268.91848663 -31.83308411 267.79273987 C-32.669725 261.93760092 -35.65629909 258.35486513 -39.875 254.4375 C-48.24448728 248.93125837 -61.2625455 250.62905088 -70.99559021 250.33541107 C-74.39401827 250.23252363 -77.79216936 250.12148355 -81.19036484 250.01122093 C-83.94205169 249.92209222 -86.69377238 249.83406118 -89.44549561 249.74606323 C-120.67842339 248.74154217 -151.89713217 247.54075841 -183.1055069 245.94070816 C-185.61805613 245.81285335 -188.13074492 245.68816746 -190.64349365 245.56430054 C-194.58305671 245.36944071 -198.52208029 245.16598058 -202.46083069 244.95534515 C-203.89442455 244.87965417 -205.32815065 244.80641873 -206.76200867 244.73590851 C-226.97525657 243.73344049 -226.97525657 243.73344049 -233.25 236.875 C-236.18629611 231.53156361 -236.78233476 226.81017168 -235.11328125 220.953125 C-233.38295898 216.78782433 -231.04890858 213.72792012 -226.87724304 211.75 C-224.33146536 210.90213193 -222.193823 210.51446154 -219.52661133 210.3125 C-218.58428146 210.23902344 -217.6419516 210.16554687 -216.67106628 210.08984375 C-215.63105972 210.01894531 -214.59105316 209.94804687 -213.51953125 209.875 C-212.39424515 209.79378906 -211.26895905 209.71257812 -210.10957336 209.62890625 C-193.34732507 208.47279809 -176.55761356 207.75659116 -159.77352524 207.00303268 C-156.90896315 206.8737117 -154.04451213 206.74215181 -151.18008423 206.6098938 C-131.57174236 205.70533692 -111.96503118 204.84608244 -92.34375 204.27734375 C-91.62617838 204.25616108 -90.90860676 204.23497841 -90.16929054 204.21315384 C-82.91434255 203.99914457 -75.65949997 203.80485289 -68.40307617 203.64648438 C-66.10595063 203.58618088 -63.80883107 203.5256488 -61.51171875 203.46484375 C-60.5052832 203.4492894 -59.49884766 203.43373505 -58.46191406 203.41770935 C-51.63329505 203.22172565 -43.68427802 202.84566111 -38.30180359 198.18980408 C-32.90443698 192.31245454 -31.94187919 186.67495442 -31.72265625 178.9453125 C-31.68934204 178.03689606 -31.65602783 177.12847961 -31.6217041 176.1925354 C-31.54932065 174.19274438 -31.48104176 172.19280171 -31.41629028 170.19274902 C-31.31003073 166.92404151 -31.19256536 163.65590579 -31.07202148 160.38769531 C-30.93989521 156.80444964 -30.80838338 153.22119306 -30.67982483 149.63781738 C-29.3605233 112.90272017 -27.82961556 76.16479103 -25.92990112 39.45495605 C-25.8112518 37.13510513 -25.69683775 34.81503318 -25.58694458 32.49475098 C-25.43519443 29.31991302 -25.26687857 26.14639049 -25.09375 22.97265625 C-25.0531395 22.05833328 -25.01252899 21.14401031 -24.97068787 20.20198059 C-24.62211535 14.27883157 -23.99702333 7.90786048 -19.83532715 3.31312561 C-13.92461955 -1.81573423 -7.27181113 -2.51716539 0 0 Z " fill="#304974" transform="translate(263.25,29.125)"/>
<path d="M0 0 C2.51931377 2.23812339 4.96666924 4.53475993 7.40234375 6.86328125 C8.34400391 7.69279297 8.34400391 7.69279297 9.3046875 8.5390625 C21.10556906 19.32308805 28.28697164 36.67825337 29.62353516 52.47802734 C30.58309822 75.33196116 26.17591127 95.83784581 10.734375 113.41015625 C-3.22382743 128.09315646 -20.99739702 138.33816227 -41.65234375 139.1015625 C-63.52889453 139.5212159 -81.58186405 135.37575611 -98.59765625 120.86328125 C-99.39300781 120.26515625 -100.18835938 119.66703125 -101.0078125 119.05078125 C-115.41320682 106.88332903 -123.37834529 88.24073344 -125.59765625 69.86328125 C-126.83212437 46.31342787 -120.66609348 26.25352205 -105.2890625 8.14453125 C-78.40690917 -20.45913929 -30.86655508 -25.38948215 0 0 Z M-77.59765625 23.86328125 C-78.48453125 24.48203125 -79.37140625 25.10078125 -80.28515625 25.73828125 C-89.11694588 33.85397983 -94.95366823 45.30319432 -95.8515625 57.23828125 C-96.32089146 72.01457356 -92.30520933 84.27370185 -82.37890625 95.3359375 C-72.79542347 104.65494104 -60.80922713 109.65853797 -47.48046875 109.92578125 C-32.59528255 109.35464701 -21.40748295 103.17260944 -11.34765625 92.55078125 C-2.71953339 82.46172125 0.90438335 70.15509304 0.26171875 56.98046875 C-1.3101576 44.16625939 -7.88978289 32.31803876 -17.59765625 23.86328125 C-36.05278296 10.53317605 -59.30148984 9.76560355 -77.59765625 23.86328125 Z " fill="#00A1FF" transform="translate(426.59765625,317.13671875)"/>
<path d="M0 0 C0.6084375 0.51691406 1.216875 1.03382812 1.84375 1.56640625 C10.82386998 9.70974232 17.17403502 21.64213533 21 33 C21.31839844 33.94488281 21.63679687 34.88976562 21.96484375 35.86328125 C27.7708334 56.49193573 24.11991508 77.90197696 14.0703125 96.4375 C11.47022805 101.0182582 8.54315977 105.09948291 5 109 C4.35804688 109.73347656 3.71609375 110.46695313 3.0546875 111.22265625 C-10.97000874 126.30826125 -30.1265258 133.78726023 -50.41796875 135.1640625 C-63.40513017 135.59631296 -76.42133634 132.8613982 -88 127 C-88.98355469 126.50757813 -89.96710938 126.01515625 -90.98046875 125.5078125 C-108.15213866 116.22222644 -121.02366188 100.89721668 -127.22265625 82.33984375 C-133.72356446 60.18083404 -131.92737211 39.69491914 -121.47265625 18.97265625 C-111.76122284 1.21787094 -96.41773123 -10.96827182 -77.265625 -17.21875 C-49.8004055 -25.06595557 -21.27130157 -19.40609415 0 0 Z M-90 26 C-99.48633692 37.62381626 -101.99741943 50.38965237 -101 65 C-99.02403805 77.37488033 -91.72799767 88.33235572 -82 96 C-70.22527062 103.51462821 -58.00902456 106.87887352 -44.0703125 104.5 C-31.11155033 101.26948705 -20.68906606 94.87600597 -13.1875 83.6875 C-6.23682661 71.995532 -3.58683836 60.48277008 -6.21484375 47.046875 C-9.96421079 32.49709246 -17.30965532 22.9045791 -30 15 C-50.74299248 3.57779662 -74.07821794 9.16918886 -90 26 Z " fill="#00A1FF" transform="translate(186,76)"/>
<path d="M0 0 C0.71542969 -0.03738281 1.43085937 -0.07476562 2.16796875 -0.11328125 C10.68682886 1.25829298 16.04608043 7.03978179 21.765625 12.98046875 C22.58826843 13.81588699 23.41091187 14.65130524 24.25848389 15.51203918 C26.86966273 18.16525328 29.4672073 20.83125108 32.0625 23.5 C34.67299196 26.17849354 37.28639927 28.85381144 39.90936279 31.52009583 C41.53736688 33.17540151 43.15813081 34.8378658 44.77081299 36.50810242 C45.50547791 37.25590469 46.24014282 38.00370697 46.99707031 38.77416992 C47.63912415 39.43495041 48.28117798 40.0957309 48.94268799 40.77653503 C51.00303366 42.46901468 52.14436402 43.18487957 54.8125 43.3125 C56.77371266 42.18395186 56.77371266 42.18395186 58.55981445 40.37817383 C59.25732819 39.72692535 59.95484192 39.07567688 60.67349243 38.4046936 C61.37936493 37.71426971 62.08523743 37.02384583 62.8125 36.3125 C63.4675351 35.67371918 64.12257019 35.03493835 64.79745483 34.37680054 C66.83542937 32.35610743 68.84754178 30.31225386 70.85546875 28.26171875 C72.35583374 26.74385782 73.85649333 25.22628804 75.35742188 23.70898438 C77.69105607 21.3442778 80.02225216 18.97730831 82.34838867 16.60522461 C84.61485562 14.29647371 86.89062916 11.99723868 89.16796875 9.69921875 C89.86077438 8.98779221 90.55358002 8.27636566 91.26737976 7.54338074 C95.86226564 2.92424445 99.49641296 0.03611544 106.25 0 C111.12869961 0.13754211 114.73447603 1.20068702 118.25390625 4.77734375 C121.93277036 9.06411133 122.99334135 11.49126013 123.125 17.0625 C123.18107422 18.60164063 123.18107422 18.60164063 123.23828125 20.171875 C122.20223396 27.81391189 115.37552052 32.93798199 110.109375 38.03515625 C108.39020675 39.72418377 106.67146943 41.41365 104.953125 43.10351562 C102.24986639 45.75082605 99.54289432 48.39403327 96.828125 51.02954102 C94.20246182 53.58287515 91.59253186 56.15145957 88.984375 58.72265625 C88.1657196 59.50923111 87.34706421 60.29580597 86.50360107 61.10621643 C85.75572327 61.8472612 85.00784546 62.58830597 84.23730469 63.35180664 C83.57430359 63.99767227 82.91130249 64.6435379 82.22821045 65.30897522 C80.63920416 67.25432912 80.63920416 67.25432912 80.37767029 69.8067627 C80.93525382 73.01987764 82.01588148 74.10454135 84.3449707 76.36499023 C85.50166008 77.50658852 85.50166008 77.50658852 86.68171692 78.67124939 C87.94721626 79.88392235 87.94721626 79.88392235 89.23828125 81.12109375 C90.09681198 81.96543472 90.95534271 82.8097757 91.83988953 83.67970276 C94.59002063 86.38193169 97.35606796 89.06704919 100.125 91.75 C102.88150704 94.43099948 105.6341775 97.11557843 108.37797546 99.80958557 C110.08631768 101.48599168 111.8022165 103.15474026 113.52644348 104.81480408 C118.20888954 109.39908185 122.18463898 113.33604684 123.24609375 120.05859375 C123.25526961 126.38076376 122.80013159 130.30239877 118.8125 135.3125 C113.85043555 139.26189823 109.91696464 139.77009453 103.65625 139.84375 C95.5798687 138.33497547 90.44458109 132.27981924 84.9921875 126.609375 C83.30623632 124.89038297 81.62003088 123.17164028 79.93359375 121.453125 C77.29809232 118.74908574 74.66680634 116.04112304 72.04052734 113.328125 C69.49346762 110.70281824 66.93137103 108.09294293 64.3671875 105.484375 C63.58374969 104.6657196 62.80031189 103.84706421 61.99313354 103.00360107 C61.25531647 102.25572327 60.51749939 101.50784546 59.75732422 100.73730469 C58.79305008 99.74280304 58.79305008 99.74280304 57.80929565 98.72821045 C55.87093633 97.14050847 55.87093633 97.14050847 53.32695007 96.87094116 C50.06546422 97.44368584 48.9389683 98.59274893 46.63647461 100.95263672 C45.84893295 101.74701141 45.0613913 102.54138611 44.24998474 103.35983276 C43.41338821 104.22850983 42.57679169 105.09718689 41.71484375 105.9921875 C40.84356339 106.87528595 39.97228302 107.7583844 39.07460022 108.66824341 C36.76071164 111.0164027 34.45751287 113.37438126 32.15985107 115.73840332 C28.92299904 119.06535864 25.67086763 122.37729753 22.41468811 125.68533325 C20.6824853 127.44677007 18.95607511 129.21392585 17.23606873 130.98727417 C16.45167923 131.78795319 15.66728973 132.5886322 14.85913086 133.41357422 C14.17249863 134.1197287 13.48586639 134.82588318 12.77842712 135.55343628 C8.08904689 139.74937953 3.82824724 139.74025086 -2.2734375 139.62890625 C-7.5236502 139.05884294 -10.08550985 136.53362422 -13.5 132.75 C-15.75927816 129.48659821 -16.35693049 126.88747893 -16.4375 123 C-16.47617187 121.89205078 -16.47617187 121.89205078 -16.515625 120.76171875 C-15.48901821 113.09883239 -9.65423355 108.43493311 -4.3984375 103.3359375 C-3.53940826 102.48826813 -2.68037903 101.64059875 -1.7953186 100.76724243 C0.94184489 98.06665199 3.68843259 95.37596866 6.4375 92.6875 C10.06323946 89.14137769 13.67907179 85.58558287 17.2890625 82.0234375 C18.12756744 81.20982758 18.96607239 80.39621765 19.82998657 79.55795288 C20.60103729 78.79681183 21.37208801 78.03567078 22.16650391 77.25146484 C22.84806549 76.58561371 23.52962708 75.91976257 24.23184204 75.23373413 C25.94718643 73.14879338 26.69335057 72.01360732 26.8125 69.3125 C25.67511359 67.34273381 25.67511359 67.34273381 23.86230469 65.54931641 C23.21112671 64.85187317 22.55994873 64.15442993 21.88903809 63.43585205 C21.20378052 62.73514587 20.51852295 62.0344397 19.8125 61.3125 C19.18879517 60.67254089 18.56509033 60.03258179 17.92248535 59.37322998 C15.97115701 57.40466509 13.99680909 55.46193205 12.015625 53.5234375 C10.54789278 52.07320435 9.08045334 50.62267482 7.61328125 49.171875 C5.32988927 46.91951941 3.04423876 44.6696056 0.75341797 42.42480469 C-1.4784774 40.23529009 -3.7007705 38.03639065 -5.921875 35.8359375 C-6.60626648 35.17016693 -7.29065796 34.50439636 -7.99578857 33.81845093 C-12.18526894 29.65165824 -15.64465912 25.80371192 -16.5859375 19.75 C-16.52921248 13.85059763 -16.1388846 9.28001238 -11.7578125 4.875 C-7.98908661 1.57502111 -4.95253219 0.16654533 0 0 Z " fill="#EA3C5D" transform="translate(79.1875,308.6875)"/>
<path d="M0 0 C1.09441406 -0.02513672 1.09441406 -0.02513672 2.2109375 -0.05078125 C9.85811422 1.10000748 14.46293646 6.82069128 19.56640625 12.1015625 C21.30133729 13.86467683 23.03636627 15.62769477 24.77148438 17.390625 C27.48903856 20.17048469 30.20317819 22.95360625 32.91479492 25.73925781 C35.5402448 28.43093141 38.1776801 31.11041263 40.81640625 33.7890625 C41.62485489 34.62756744 42.43330353 35.46607239 43.26625061 36.32998657 C44.40784889 37.48656265 44.40784889 37.48656265 45.57250977 38.66650391 C46.23614029 39.34806549 46.89977081 40.02962708 47.58351135 40.73184204 C50.0230481 42.62069564 51.54197318 43.20240948 54.625 43.3125 C56.67760006 42.2066386 56.67760006 42.2066386 58.43481445 40.37817383 C59.12330475 39.72692535 59.81179504 39.07567688 60.52114868 38.4046936 C61.56255508 37.36905777 61.56255508 37.36905777 62.625 36.3125 C63.27874603 35.67371918 63.93249207 35.03493835 64.60604858 34.37680054 C66.64675032 32.35741773 68.6593334 30.31297727 70.66796875 28.26171875 C72.16833374 26.74385782 73.66899333 25.22628804 75.16992188 23.70898438 C77.50355607 21.3442778 79.83475216 18.97730831 82.16088867 16.60522461 C84.42735562 14.29647371 86.70312916 11.99723868 88.98046875 9.69921875 C89.67327438 8.98779221 90.36608002 8.27636566 91.07987976 7.54338074 C95.64335231 2.95582357 99.2989104 0.0584583 106 -0.0625 C110.94421198 0.06089963 113.63140586 1.41518661 117.625 4.3125 C121.4074715 8.4931264 122.78333255 10.97078531 122.875 16.5625 C122.91367187 17.96242188 122.91367187 17.96242188 122.953125 19.390625 C122.05515829 27.38680477 116.2792463 31.93610332 110.765625 37.18359375 C108.99278415 38.90878059 107.22067027 40.63471473 105.44921875 42.36132812 C102.65679956 45.06680747 99.85869007 47.76558188 97.04736328 50.45141602 C94.33141091 53.05272016 91.64100389 55.67833475 88.953125 58.30859375 C88.10429749 59.10671982 87.25546997 59.90484589 86.38092041 60.72715759 C81.91560505 65.05310288 81.91560505 65.05310288 80.06958008 70.80810547 C82.40268366 76.06463801 86.06214875 79.44764359 90.18359375 83.38671875 C91.04308121 84.23297318 91.90256866 85.0792276 92.7881012 85.9511261 C95.53239364 88.6486632 98.29619962 91.3250522 101.0625 94 C103.82167099 96.68902054 106.5765122 99.382279 109.32618713 102.08100891 C111.03712274 103.75802198 112.75417811 105.42881891 114.47789001 107.09269714 C115.25532059 107.8506105 116.03275116 108.60852386 116.83374023 109.3894043 C117.51911362 110.05223923 118.204487 110.71507416 118.91062927 111.397995 C122.88152335 115.83244809 123.06070948 119.7792433 122.9375 125.5546875 C122.32172862 130.98886989 120.04956916 134.05357841 115.9375 137.6875 C110.39150984 140.40817442 106.03780969 140.95266346 100.05102539 139.36425781 C94.24219661 137.11530877 90.48801652 132.7019986 86.26953125 128.26953125 C85.4048674 127.3859343 84.54020355 126.50233734 83.64933777 125.59196472 C80.43183628 122.30323897 77.23778252 118.99233067 74.04449463 115.68011475 C70.90412116 112.42544573 67.74511616 109.1896073 64.58203125 105.95703125 C63.75798294 105.09149124 62.93393463 104.22595123 62.08491516 103.33418274 C61.31028427 102.54303574 60.53565338 101.75188873 59.73754883 100.93676758 C59.06218582 100.23522049 58.38682281 99.5336734 57.69099426 98.81086731 C55.70075007 97.13973545 55.70075007 97.13973545 53.125 96.85946655 C49.88990021 97.44570992 48.78279325 98.57840347 46.51245117 100.93676758 C45.73782028 101.72791458 44.96318939 102.51906158 44.16508484 103.33418274 C43.34103653 104.19972275 42.51698822 105.06526276 41.66796875 105.95703125 C40.80617508 106.83775803 39.94438141 107.7184848 39.05647278 108.62590027 C36.29628127 111.44726119 33.5519442 114.28353031 30.8125 117.125 C27.21634428 120.85433492 23.60392345 124.56673561 19.98046875 128.26953125 C19.16249313 129.12899857 18.34451752 129.98846588 17.50175476 130.87397766 C12.22087742 136.26609205 7.87140337 139.78867813 0.12109375 140.5625 C-5.44797797 139.8861801 -9.35927209 138.30646245 -13.375 134.3125 C-16.69612479 129.81291158 -16.75455696 125.50105695 -16.87109375 120.09375 C-15.54999063 112.68725064 -8.83284228 107.60039663 -3.671875 102.625 C-1.95255263 100.94068823 -0.23382002 99.25577428 1.484375 97.5703125 C4.18632599 94.93044135 6.89259044 92.29550637 9.609375 89.67089844 C12.23744024 87.12733385 14.84637849 84.56538357 17.453125 82 C18.2717804 81.21858643 19.09043579 80.43717285 19.93389893 79.63208008 C20.68177673 78.89111084 21.42965454 78.1501416 22.20019531 77.38671875 C22.86319641 76.74307373 23.52619751 76.09942871 24.20928955 75.4362793 C26.15295874 72.52048222 26.12240448 70.75078204 25.625 67.3125 C24.20815454 65.05492322 24.20815454 65.05492322 22.0925293 63.14648438 C21.32140305 62.38549438 20.55027679 61.62450439 19.75578308 60.8404541 C18.91211685 60.03716675 18.06845062 59.23387939 17.19921875 58.40625 C16.34068802 57.56332397 15.48215729 56.72039795 14.59761047 55.85192871 C11.8497343 53.15751243 9.0827 50.4839445 6.3125 47.8125 C3.55562814 45.13860125 0.80328056 42.46042864 -1.94047546 39.77307129 C-3.64840074 38.10177672 -5.36428414 36.43856659 -7.08894348 34.7845459 C-15.74839175 26.34245107 -15.74839175 26.34245107 -16.7734375 19.75 C-16.72338463 14.54450114 -16.42682853 10.73238959 -13.375 6.3125 C-9.30670817 2.55715369 -5.62144593 0.02958656 0 0 Z " fill="#EA3C5D" transform="translate(333.375,54.6875)"/>
</svg>
